<svg xmlns="http://www.w3.org/2000/svg" xmlns:xlink="http://www.w3.org/1999/xlink" viewBox="0,0,256,256" width="48px" height="48px" fill-rule="nonzero"><g fill="#ffffff" fill-rule="nonzero" stroke="none" stroke-width="1" stroke-linecap="butt" stroke-linejoin="miter" stroke-miterlimit="10" stroke-dasharray="" stroke-dashoffset="0" font-family="none" font-weight="none" font-size="none" text-anchor="none" style="mix-blend-mode: normal"><path d="M73.856,248.32c-36.548,0 -66.176,-29.628 -66.176,-66.176v-108.288c0,-36.548 29.628,-66.176 66.176,-66.176h108.288c36.548,0 66.176,29.628 66.176,66.176v108.288c0,36.548 -29.628,66.176 -66.176,66.176z" id="shape"></path></g><g fill="none" fill-rule="nonzero" stroke="none" stroke-width="1" stroke-linecap="butt" stroke-linejoin="miter" stroke-miterlimit="10" stroke-dasharray="" stroke-dashoffset="0" font-family="none" font-weight="none" font-size="none" text-anchor="none" style="mix-blend-mode: normal"><g transform="scale(5.33333,5.33333)"><path d="M43.611,20.083h-1.611v-0.083h-18v8h11.303c-1.649,4.657 -6.08,8 -11.303,8c-6.627,0 -12,-5.373 -12,-12c0,-6.627 5.373,-12 12,-12c3.059,0 5.842,1.154 7.961,3.039l5.657,-5.657c-3.572,-3.329 -8.35,-5.382 -13.618,-5.382c-11.045,0 -20,8.955 -20,20c0,11.045 8.955,20 20,20c11.045,0 20,-8.955 20,-20c0,-1.341 -0.138,-2.65 -0.389,-3.917z" fill="#ffc107"></path><path d="M6.306,14.691l6.571,4.819c1.778,-4.402 6.084,-7.51 11.123,-7.51c3.059,0 5.842,1.154 7.961,3.039l5.657,-5.657c-3.572,-3.329 -8.35,-5.382 -13.618,-5.382c-7.682,0 -14.344,4.337 -17.694,10.691z" fill="#ff3d00"></path><path d="M24,44c5.166,0 9.86,-1.977 13.409,-5.192l-6.19,-5.238c-2.008,1.521 -4.504,2.43 -7.219,2.43c-5.202,0 -9.619,-3.317 -11.283,-7.946l-6.522,5.025c3.31,6.477 10.032,10.921 17.805,10.921z" fill="#4caf50"></path><path d="M43.611,20.083h-1.611v-0.083h-18v8h11.303c-0.792,2.237 -2.231,4.166 -4.087,5.571c0.001,-0.001 0.002,-0.001 0.003,-0.002l6.19,5.238c-0.438,0.398 6.591,-4.807 6.591,-14.807c0,-1.341 -0.138,-2.65 -0.389,-3.917z" fill="#1976d2"></path></g></g></svg>